<svg xmlns="http://www.w3.org/2000/svg" width="48" height="48" viewBox="0 0 48 48">
  <g id="vuesax_bulk_card-tick" data-name="vuesax/bulk/card-tick" transform="translate(-428 -380)">
    <g id="card-tick" transform="translate(428 380)">
      <path id="Vector" d="M0,0H48V48H0Z" fill="none" opacity="0"/>
      <path id="Vector-2" data-name="Vector" d="M8,0A8,8,0,0,0,0,8a7.842,7.842,0,0,0,1.16,4.12,7.969,7.969,0,0,0,13.68,0A7.842,7.842,0,0,0,16,8,8,8,0,0,0,8,0Zm4.14,7.14L7.88,11.08a1.526,1.526,0,0,1-1.02.4,1.483,1.483,0,0,1-1.06-.44L3.82,9.06A1.5,1.5,0,0,1,5.94,6.94l.96.96,3.2-2.96a1.5,1.5,0,0,1,2.04,2.2Z" transform="translate(30 30)" fill="#f64e60"/>
      <path id="Vector-3" data-name="Vector" d="M40,8.28V11.2H0V8.28A8.288,8.288,0,0,1,8.3,0H31.7A8.288,8.288,0,0,1,40,8.28Z" transform="translate(4 6.8)" fill="#f64e60"/>
      <path id="Vector-4" data-name="Vector" d="M0,0V14.92A8.271,8.271,0,0,0,8.28,23.2H20.8a2.039,2.039,0,0,0,2.06-2.14,11.029,11.029,0,0,1,3.42-9.02,10.155,10.155,0,0,1,4-2.42,11.194,11.194,0,0,1,7.06.02A2,2,0,0,0,40,7.76V0ZM12,16.5H8a1.5,1.5,0,0,1,0-3h4a1.5,1.5,0,0,1,0,3Z" transform="translate(4 18)" fill="#f64e60" opacity="0.4"/>
      <path id="Vector-5" data-name="Vector" d="M7,1.5A1.511,1.511,0,0,1,5.5,3h-4A1.511,1.511,0,0,1,0,1.5,1.511,1.511,0,0,1,1.5,0h4A1.511,1.511,0,0,1,7,1.5Z" transform="translate(10.5 31.5)" fill="#f64e60"/>
    </g>
  </g>
</svg>
